                       =!DK GROUP HD BLURAY RELEAESEES!=

===================================================================================

      Fast Five(2011)1080p BDRip In[Hindi-Eng-Tamil]6CH-DTS-AC3 By !!!dip

===================================================================================

Storyline:

Former cop Brian O'Conner partners with ex-con Dom Toretto on the opposite side of the law. Since Brian and Mia Toretto broke Dom out of custody, they've blown across many borders to elude authorities. Now backed into a corner in Rio de Janeiro, they must pull one last job in order to gain their freedom. As they assemble their elite team of top racers, the unlikely allies know their only shot of getting out for good means confronting the corrupt businessman who wants them dead. But he's not the only one on their tail. Hard-nosed federal agent Luke Hobbs never misses his target. When he is assigned to track down Dom and Brian, he and his strike team launch an all-out assault to capture them. But as his men tear through Brazil, Hobbs learns he can't separate the good guys from the bad. Now, he must rely on his instincts to corner his prey... before someone else runs them down first.

Cast:

Vin Diesel 	... 	Dominic Toretto
Paul Walker 	... 	Brian O'Conner
Jordana Brewster... 	Mia Toretto
Tyrese Gibson 	... 	Roman Pearce
Ludacris 	... 	Tej Parker (as Chris 'Ludacris' Bridges)
Elsa Pataky 	... 	Elena Neves
Gal Gadot 	... 	Gisele Harabo
Tego Calderon 	... 	Tego Leo
Don Omar 	... 	Rico Santos
Matt Schulze 	... 	Vince
Dwayne Johnson 	... 	Luke Hobbs
Sung Kang 	... 	Han Lue
Joaquim de Almeida. 	Hernan Reyes
Michael Irby 	... 	Zizi
Fernando Chien 	... 	Wilkes 


Directors :Justin Lin
Writers :Chris Morgan, Gary Scott Thompson
Stars:Vin Diesel, Paul Walker and Dwayne Johnson
Genre:Action | Crime | Drama
Language: English-Hindi-Tamil
Format : Color, Dubbed,Widescreen
Release Date :6 May 2011 (India)
Run Time : 02H:05M:00S
Encoder: Deep Shikha


Box Office:

Budget:$125,000,000 (estimated)
Opening Weekend:$86,198,765 (USA) (1 May 2011) (3644 Screens)
Gross:$209,805,005 (USA) (7 August 2011) 


Video Specifications:


Video
ID                               : 1
Format                           : AVC
Format/Info                      : Advanced Video Codec
Format profile                   : High@L4.1
Format settings, CABAC           : Yes
Format settings, ReFrames        : 3 frames
Muxing mode                      : Header stripping
Codec ID                         : V_MPEG4/ISO/AVC
Duration                         : 2h 5mn
Bit rate mode                    : Variable
Nominal bit rate                 : 3 000 Kbps
Maximum bit rate                 : 62.5 Mbps
Width                            : 1 920 pixels
Height                           : 818 pixels
Display aspect ratio             : 2.35:1
Frame rate                       : 25.000 fps
Original frame rate              : 23.976 fps
Color space                      : YUV
Chroma subsampling               : 4:2:0
Bit depth                        : 8 bits
Scan type                        : Progressive
Bits/(Pixel*Frame)               : 0.076
Title                            : !!!dip
Team                             : DK Group HD Bluray Releases



Audio Specifications:


Audio #1
ID                               : 2
Format                           : AC-3
Format/Info                      : Audio Coding 3
Mode extension                   : CM (complete main)
Muxing mode                      : Header stripping
Codec ID                         : A_AC3
Duration                         : 2h 5mn
Bit rate mode                    : Constant
Bit rate                         : 448 Kbps
Channel(s)                       : 6 channels
Channel positions                : Front: L C R, Side: L R, LFE
Sampling rate                    : 48.0 KHz
Bit depth                        : 16 bits
Compression mode                 : Lossy
Delay relative to video          : 2s 500ms
Stream size                      : 401 MiB (11%)
Title                            : !!!dip
Language                         : English

Audio #2
ID                               : 3
Format                           : AC-3
Format/Info                      : Audio Coding 3
Mode extension                   : CM (complete main)
Muxing mode                      : Header stripping
Codec ID                         : A_AC3
Duration                         : 2h 5mn
Bit rate mode                    : Constant
Bit rate                         : 448 Kbps
Channel(s)                       : 6 channels
Channel positions                : Front: L C R, Side: L R, LFE
Sampling rate                    : 48.0 KHz
Bit depth                        : 16 bits
Compression mode                 : Lossy
Delay relative to video          : 2s 500ms
Stream size                      : 401 MiB (11%)
Title                            : !!!dip
Language                         : Hindi

Audio #3
ID                               : 4
Format                           : AAC
Format/Info                      : Advanced Audio Codec
Format profile                   : HE-AAC / LC
Codec ID                         : A_AAC
Duration                         : 2h 5mn
Channel(s)                       : 2 channels
Channel positions                : Front: L R
Sampling rate                    : 48.0 KHz / 24.0 KHz
Compression mode                 : Lossy
Title                            : !!!dip
Language                         : Tamil


SAMPLE IMAGE:

 
http://www.pix2links.com/images/30948307520119485925.jpg
 
http://www.pix2links.com/images/28654438693020558681.jpg
 
http://www.pix2links.com/images/43520156144185846437.jpg
 
http://www.pix2links.com/images/34260561070931388599.jpg
 
http://www.pix2links.com/images/38496286690877319237.jpg
 
http://www.pix2links.com/images/73568795417969865152.jpg


SAMPLE VIDEO INCLUDED: